<svg width="224" height="143" viewBox="0 0 224 143" fill="none" xmlns="http://www.w3.org/2000/svg">
<g clip-path="url(#clip0)">
<path d="M10.238 119.61C11.1859 111.993 15.9102 104.489 23.1801 102.01C20.313 109.85 20.3136 118.45 23.1818 126.289C24.2989 129.308 25.856 132.55 24.8052 135.593C24.1515 137.487 22.5521 138.935 20.7643 139.841C18.9764 140.747 16.9921 141.178 15.0328 141.602L14.6472 141.92C11.5367 134.902 9.28998 127.227 10.238 119.61Z" fill="#5949A3"/>
<path d="M23.2521 102.154C19.0185 106.894 16.3871 112.846 15.7319 119.165C15.5666 120.523 15.6166 121.898 15.88 123.241C16.1789 124.54 16.8206 125.736 17.7383 126.703C18.5759 127.623 19.5391 128.466 20.1384 129.573C20.4368 130.144 20.6109 130.772 20.6494 131.415C20.6879 132.058 20.59 132.702 20.3619 133.305C19.8328 134.821 18.79 136.057 17.7282 137.23C16.5492 138.533 15.304 139.867 14.8028 141.594C14.7421 141.804 14.4207 141.697 14.4813 141.488C15.3532 138.484 18.2723 136.777 19.6644 134.071C20.314 132.808 20.5866 131.342 19.9777 130.009C19.4452 128.843 18.4525 127.973 17.5964 127.049C16.6873 126.118 16.0201 124.979 15.6532 123.731C15.3223 122.406 15.2193 121.035 15.3488 119.676C15.5914 116.612 16.3147 113.605 17.4922 110.765C18.8181 107.516 20.6904 104.518 23.0281 101.9C23.1728 101.739 23.3959 101.993 23.2521 102.154H23.2521Z" fill="white"/>
<path d="M15.823 117.118C14.7769 116.864 13.8551 116.247 13.2222 115.377C12.5894 114.507 12.2867 113.44 12.3683 112.368C12.3855 112.151 12.7238 112.167 12.7065 112.385C12.6287 113.383 12.9107 114.377 13.5017 115.186C14.0926 115.995 14.9536 116.566 15.9292 116.797C16.1411 116.847 16.0337 117.168 15.823 117.118H15.823Z" fill="white"/>
<path d="M17.2522 126.293C19.1417 125.166 20.5365 123.368 21.1585 121.259C21.22 121.05 21.5414 121.156 21.48 121.365C20.8286 123.559 19.3733 125.426 17.4044 126.595C17.2167 126.706 17.0655 126.404 17.2522 126.293Z" fill="white"/>
<path d="M19.1322 107.837C19.5165 108.019 19.9402 108.103 20.3651 108.082C20.79 108.06 21.203 107.934 21.5668 107.713C21.753 107.6 21.9041 107.902 21.7191 108.015C21.316 108.257 20.8597 108.396 20.3903 108.421C19.9209 108.446 19.4525 108.356 19.0261 108.158C18.9843 108.143 18.9499 108.112 18.93 108.072C18.91 108.033 18.9058 107.987 18.9184 107.944C18.9327 107.902 18.9631 107.867 19.0032 107.847C19.0432 107.826 19.0896 107.823 19.1322 107.837Z" fill="white"/>
<path d="M45.3396 115.614C45.2253 115.689 45.1111 115.763 44.9967 115.84C43.4656 116.846 42.0189 117.974 40.6708 119.214C40.565 119.309 40.4592 119.406 40.3564 119.503C37.1403 122.525 34.5138 126.117 32.6102 130.098C31.8542 131.682 31.2199 133.322 30.7129 135.003C30.0128 137.324 29.4385 139.896 28.0527 141.795C27.9103 141.994 27.7557 142.185 27.5898 142.366H15.066C15.0376 142.351 15.009 142.34 14.9804 142.326L14.4803 142.348C14.5004 142.26 14.5232 142.169 14.5433 142.08C14.5547 142.029 14.5689 141.977 14.5804 141.926C14.5889 141.892 14.5975 141.857 14.6033 141.826C14.6061 141.815 14.609 141.803 14.6118 141.795C14.6175 141.763 14.6261 141.735 14.6319 141.706C14.7576 141.195 14.8871 140.684 15.0204 140.173C15.0204 140.17 15.0204 140.17 15.0232 140.167C16.0491 136.276 17.4091 132.436 19.3092 128.924C19.3664 128.819 19.4235 128.71 19.4864 128.605C20.3517 127.026 21.3446 125.522 22.4552 124.105C23.0659 123.331 23.7153 122.589 24.4011 121.881C26.1765 120.055 28.2284 118.519 30.4814 117.33C34.9732 114.96 40.1735 114.053 44.9739 115.5C45.0967 115.537 45.2168 115.574 45.3396 115.614Z" fill="#5949A3"/>
<path d="M45.3115 115.773C39.0751 117.011 33.3876 120.18 29.0568 124.831C28.1066 125.816 27.3178 126.945 26.7193 128.175C26.175 129.392 25.9669 130.733 26.1166 132.057C26.2313 133.295 26.4921 134.548 26.3036 135.793C26.1977 136.428 25.9585 137.034 25.6017 137.571C25.245 138.107 24.7787 138.563 24.2335 138.907C22.8974 139.799 21.32 140.159 19.7652 140.456C18.039 140.787 16.2407 141.104 14.7999 142.181C14.6254 142.312 14.4329 142.033 14.6072 141.903C17.1138 140.028 20.4729 140.422 23.2151 139.099C24.4946 138.481 25.5957 137.475 25.9127 136.044C26.1898 134.793 25.922 133.5 25.795 132.248C25.6301 130.958 25.7838 129.647 26.2428 128.43C26.7767 127.173 27.5207 126.016 28.443 125.009C30.4832 122.708 32.8727 120.742 35.5241 119.183C38.5402 117.387 41.8416 116.12 45.2855 115.436C45.4986 115.394 45.5233 115.731 45.3115 115.773H45.3115Z" fill="white"/>
<path d="M30.3631 123.252C29.6807 122.42 29.3165 121.372 29.3356 120.297C29.3546 119.222 29.7556 118.188 30.4671 117.38C30.6116 117.218 30.8716 117.434 30.7269 117.597C30.0631 118.348 29.6896 119.311 29.6739 120.312C29.6582 121.314 30.0013 122.288 30.6414 123.059C30.7803 123.227 30.5011 123.418 30.3631 123.252H30.3631Z" fill="white"/>
<path d="M25.9757 131.437C28.1636 131.674 30.3604 131.078 32.128 129.768C32.303 129.638 32.4956 129.916 32.3208 130.046C30.4788 131.406 28.1915 132.021 25.9152 131.77C25.6983 131.746 25.76 131.413 25.9757 131.437V131.437Z" fill="white"/>
<path d="M38.5978 117.832C38.7947 118.209 39.0822 118.531 39.4345 118.769C39.7868 119.008 40.1928 119.155 40.6161 119.198C40.8332 119.219 40.7714 119.552 40.5556 119.531C40.0882 119.481 39.6399 119.318 39.2501 119.055C38.8604 118.793 38.5408 118.439 38.3195 118.024C38.2954 117.987 38.2864 117.942 38.2943 117.898C38.3023 117.855 38.3266 117.815 38.3623 117.789C38.3993 117.764 38.4448 117.754 38.4889 117.762C38.533 117.77 38.5721 117.795 38.5978 117.832Z" fill="white"/>
<path d="M112.87 138.912L116.191 137.795L113.462 124.469L108.562 126.116L112.87 138.912Z" fill="#FFB6B6"/>
<path d="M111.659 138.113L112.593 137.799L115.743 135.09L118.197 135.915L118.197 135.915C119.303 135.544 120.51 135.626 121.554 136.144C122.599 136.662 123.394 137.574 123.766 138.678L123.812 138.813L113.106 142.412L111.659 138.113Z" fill="#3C3075"/>
<path d="M96.7623 136.718L100.171 137.524L104.903 124.769L99.8717 123.58L96.7623 136.718Z" fill="#FFB6B6"/>
<path d="M96.156 135.401L97.1155 135.628L101.222 134.991L102.87 136.987L102.87 136.987C104.004 137.255 104.986 137.963 105.599 138.954C106.211 139.945 106.405 141.139 106.136 142.273L106.103 142.412L95.1113 139.815L96.156 135.401Z" fill="#3C3075"/>
<path d="M67.733 134.858H73.7468V124.9H67.733V134.858Z" fill="white"/>
<path d="M73.4456 130.169L72.6737 131.306L87.1071 141.092L87.8789 139.955L73.4456 130.169Z" fill="white"/>
<path d="M68.0344 130.169L53.6011 139.955L54.3729 141.092L68.8063 131.306L68.0344 130.169Z" fill="white"/>
<path d="M87.4929 142.412C88.5367 142.412 89.3829 141.566 89.3829 140.523C89.3829 139.48 88.5367 138.635 87.4929 138.635C86.449 138.635 85.6028 139.48 85.6028 140.523C85.6028 141.566 86.449 142.412 87.4929 142.412Z" fill="white"/>
<path d="M70.654 142.412C71.6979 142.412 72.5441 141.566 72.5441 140.523C72.5441 139.48 71.6979 138.635 70.654 138.635C69.6101 138.635 68.7639 139.48 68.7639 140.523C68.7639 141.566 69.6101 142.412 70.654 142.412Z" fill="white"/>
<path d="M53.987 142.412C55.0309 142.412 55.8771 141.566 55.8771 140.523C55.8771 139.48 55.0309 138.635 53.987 138.635C52.9431 138.635 52.0969 139.48 52.0969 140.523C52.0969 141.566 52.9431 142.412 53.987 142.412Z" fill="white"/>
<path d="M71.3414 130.737H69.9668V140.523H71.3414V130.737Z" fill="white"/>
<path d="M69.4513 129.364H72.0287V116.144H69.4513V129.364Z" fill="white"/>
<path d="M57.6368 118.205V115.114C57.6375 114.545 57.864 114 58.2666 113.597C58.6693 113.195 59.2152 112.969 59.7847 112.968H79.869C80.4384 112.969 80.9843 113.195 81.387 113.597C81.7896 114 82.0161 114.545 82.0168 115.114V118.205C82.0161 118.773 81.7896 119.319 81.387 119.721C80.9843 120.124 80.4384 120.35 79.869 120.351H59.7847C59.2152 120.35 58.6693 120.124 58.2666 119.721C57.864 119.319 57.6375 118.773 57.6368 118.205Z" fill="#3D2C8B"/>
<path d="M45.5173 112.505L32.5506 90.2288C32.1289 89.5024 32.0128 88.6385 32.2277 87.8267C32.4427 87.0149 32.9711 86.3214 33.6971 85.8984L34.455 85.458C35.182 85.0366 36.0466 84.9206 36.8591 85.1354C37.6716 85.3501 38.3656 85.8781 38.7889 86.6036L51.7556 108.88C52.1773 109.607 52.2934 110.47 52.0785 111.282C51.8636 112.094 51.3351 112.788 50.6091 113.211L49.8512 113.651C49.1242 114.072 48.2597 114.188 47.4472 113.974C46.6347 113.759 45.9406 113.231 45.5173 112.505Z" fill="#3D2C8B"/>
<path d="M57.7213 118.098C54.9184 118.095 52.2312 116.981 50.2492 115.001C48.2672 113.02 47.1523 110.335 47.1492 107.535H48.2921C48.2923 109.261 48.7669 110.953 49.6641 112.428C50.5612 113.903 51.8466 115.103 53.3798 115.898C54.913 116.692 56.6352 117.051 58.3586 116.935C60.0819 116.818 61.7401 116.231 63.1523 115.237L63.8114 116.17C62.0309 117.429 59.9024 118.103 57.7213 118.098Z" fill="#3D2C8B"/>
<path d="M69.7222 102.11C69.7222 102.11 101.724 92.4032 106.582 104.394C111.439 116.385 116.011 130.089 116.011 130.089L109.725 132.088L97.4384 111.532C97.4384 111.532 67.8233 118.955 61.6294 110.247L69.7222 102.11Z" fill="#5949A3"/>
<path d="M46.5777 77.8427L39.1486 77.2717L37.72 86.4077C37.72 86.4077 46.8635 110.104 62.5788 112.388L77.437 98.9697L60.9814 92.8438L46.5777 77.8427Z" fill="#FF2121"/>
<path d="M45.7092 72.4117C50.5091 70.0175 52.4576 64.1887 50.0613 59.3929C47.6651 54.597 41.8316 52.6501 37.0318 55.0443C32.232 57.4386 30.2835 63.2673 32.6797 68.0632C35.0759 72.8591 40.9094 74.806 45.7092 72.4117Z" fill="#FFB8B8"/>
<path d="M44.0657 73.7821C43.6173 74.1569 42.9416 74.3544 42.0174 74.3831C39.2975 74.4669 36.6252 73.6569 34.4104 72.0772C32.1956 70.4976 30.5607 68.2355 29.7563 65.6381C29.3516 64.3309 29.0088 62.381 29.6741 60.5144C30.1525 59.1729 31.0917 58.0478 31.9346 57.0985C32.6642 56.2765 33.4255 55.4713 34.1979 54.7056C35.1204 53.7903 36.2202 52.7739 37.5997 52.2964C38.6105 51.9468 39.6939 51.9156 40.7416 51.8855C41.1066 51.8748 41.4843 51.8641 41.8512 51.8396C42.7637 51.8086 43.6593 51.5854 44.4795 51.1847C44.6479 51.0945 44.8337 51.0415 45.0243 51.0292C45.2149 51.017 45.406 51.0457 45.5846 51.1136C45.7663 51.1823 45.9312 51.2893 46.0681 51.4272C46.2049 51.5651 46.3106 51.7307 46.3779 51.9129C46.5104 52.271 46.6297 52.594 47.035 52.7133C47.1811 52.7525 47.3346 52.7554 47.4821 52.7216C47.6296 52.6879 47.7665 52.6185 47.8809 52.5196C47.9413 52.4674 48.0138 52.4312 48.0918 52.4141C48.1698 52.3971 48.2508 52.3997 48.3275 52.4219C48.4043 52.4432 48.4748 52.483 48.5326 52.5378C48.5905 52.5925 48.6341 52.6606 48.6596 52.7361L48.6929 52.8344C48.776 52.7772 48.8719 52.7409 48.9721 52.7289C49.0724 52.7168 49.1741 52.7293 49.2685 52.7652C49.4053 52.8144 49.5212 52.9087 49.597 53.0326C49.6729 53.1565 49.7042 53.3025 49.6857 53.4466C49.5502 54.6347 49.084 55.7609 48.3402 56.6977C47.8259 57.3324 47.1917 57.8598 46.4738 58.2501L46.3588 58.3134L46.2793 58.1938C43.0512 59.3855 42.0654 62.7648 42.2248 65.5531L41.9425 65.591C41.9206 65.5004 41.8806 65.4152 41.8249 65.3404C41.7692 65.2656 41.6989 65.2029 41.6183 65.156C41.525 65.0969 41.421 65.0567 41.3121 65.0378C41.2032 65.0188 41.0917 65.0216 40.9839 65.0458C40.7789 65.1103 40.5977 65.234 40.463 65.4013C40.3283 65.5687 40.2463 65.7721 40.2272 65.986C40.2125 66.2095 40.2446 66.4337 40.3214 66.6441C40.3982 66.8546 40.518 67.0468 40.6732 67.2085C41.011 67.5437 41.4012 67.8218 41.8285 68.0317C42.0221 68.141 42.2226 68.2541 42.4124 68.3782C43.4868 69.0868 44.2621 70.1663 44.5898 71.4102C44.7372 71.9794 44.8218 72.7916 44.388 73.4278C44.2975 73.5602 44.189 73.6795 44.0657 73.7821Z" fill="#615BD3"/>
<path d="M107.846 108.071C106.351 120.92 103.153 132.944 103.153 132.944L97.1526 132.088L98.5192 107.857" fill="#5949A3"/>
<path d="M48.6785 65.2862C48.3914 65.286 48.112 65.1941 47.881 65.0239C47.65 64.8538 47.4795 64.6142 47.3944 64.3404C43.4956 62.3102 45.5568 60.8785 45.8253 59.2668C45.7732 59.0984 45.7549 58.9215 45.7712 58.746C45.7876 58.5706 45.8384 58.4001 45.9207 58.2443C46.003 58.0885 46.1153 57.9504 46.251 57.8379C46.3867 57.7254 46.5433 57.6408 46.7118 57.5888L50.6976 56.358C51.0379 56.2532 51.4059 56.2877 51.7208 56.4538C52.0357 56.6199 52.2718 56.904 52.3772 57.2439L53.9464 62.3175C54.0511 62.6575 54.0165 63.0251 53.8503 63.3396C53.6841 63.6542 53.3998 63.8901 53.0598 63.9955L49.0741 65.2263C48.9459 65.2659 48.8126 65.2861 48.6785 65.2862Z" fill="#5949A3"/>
<path d="M51.2829 56.182C51.5731 56.18 51.8562 56.2714 52.0902 56.4427C52.3243 56.614 52.4969 56.8561 52.5825 57.1331L54.2356 62.3206C54.3473 62.6681 54.3192 63.0455 54.1572 63.3727C54.0793 63.5331 53.9702 63.6764 53.8362 63.7942C53.7023 63.9121 53.5462 64.002 53.377 64.0589L52.4808 64.3593L49.9923 56.5504L50.8884 56.25C51.0156 56.2072 51.1487 56.1843 51.2829 56.182Z" fill="#FF2121"/>
<path d="M30.6797 68.1762C30.4942 68.1761 30.3135 68.1167 30.1641 68.0066C30.0147 67.8966 29.9045 67.7417 29.8495 67.5646L29.4343 66.2221C29.4007 66.1133 29.3888 65.9988 29.3994 65.8854C29.41 65.7719 29.4428 65.6617 29.4961 65.5609C29.5493 65.4602 29.6219 65.3709 29.7097 65.2981C29.7975 65.2254 29.8987 65.1706 30.0077 65.137L48.0039 59.5802C48.1129 59.5466 48.2274 59.5347 48.341 59.5452C48.4546 59.5558 48.5649 59.5886 48.6658 59.6419C48.7667 59.6951 48.8561 59.7676 48.9289 59.8553C49.0017 59.9431 49.0565 60.0443 49.0901 60.1532L49.5052 61.4955C49.573 61.7154 49.5506 61.9531 49.4432 62.1565C49.3357 62.3599 49.1518 62.5125 48.932 62.5806L30.9357 68.1374C30.8528 68.1631 30.7665 68.1762 30.6797 68.1762Z" fill="#5949A3"/>
<path d="M79.6349 110.204H76.9534C76.6091 110.204 76.2779 110.072 76.0278 109.836C75.7776 109.599 75.6275 109.276 75.6083 108.933L75.1534 100.86C75.143 100.677 75.1701 100.494 75.2331 100.322C75.296 100.15 75.3934 99.993 75.5193 99.8599C75.6453 99.7268 75.7971 99.6208 75.9654 99.5483C76.1338 99.4759 76.3152 99.4386 76.4985 99.4387H80.0898C80.2731 99.4386 80.4545 99.4759 80.6229 99.5484C80.7913 99.6208 80.9431 99.7268 81.0691 99.8599C81.195 99.993 81.2924 100.15 81.3553 100.322C81.4182 100.494 81.4453 100.678 81.4349 100.86L80.98 108.933C80.9608 109.276 80.8107 109.599 80.5606 109.836C80.3104 110.072 79.9792 110.204 79.6349 110.204Z" fill="#E4E4E4"/>
<path d="M81.3347 101.308L81.3004 101.906H75.288L75.2534 101.308H81.3347Z" fill="#CACACA"/>
<path d="M81.2584 102.653L81.2255 103.251H75.3629L75.3297 102.653H81.2584Z" fill="#CACACA"/>
<path d="M81.1838 103.999L81.1492 104.597H75.4391L75.4045 103.999H81.1838Z" fill="#CACACA"/>
<path d="M81.1072 105.345L81.0729 105.943H75.5154L75.4808 105.345H81.1072Z" fill="#CACACA"/>
<path d="M81.0309 106.69L80.998 107.288H75.5902L75.5574 106.69H81.0309Z" fill="#CACACA"/>
<path d="M80.9562 108.036L80.9219 108.634H75.6667L75.6321 108.036H80.9562Z" fill="#CACACA"/>
<path d="M78.369 99.9621C78.9062 99.9621 79.3416 99.8617 79.3416 99.7378C79.3416 99.614 78.9062 99.5135 78.369 99.5135C77.8318 99.5135 77.3964 99.614 77.3964 99.7378C77.3964 99.8617 77.8318 99.9621 78.369 99.9621Z" fill="#CACACA"/>
<path d="M78.4427 99.962C78.4132 99.962 78.3841 99.9562 78.3568 99.9449C78.3296 99.9336 78.3048 99.9171 78.284 99.8963C78.2632 99.8755 78.2466 99.8507 78.2353 99.8235C78.2241 99.7963 78.2183 99.7672 78.2183 99.7377V95.49H76.7979C76.7385 95.4898 76.6816 95.4661 76.6397 95.4241C76.5978 95.382 76.5742 95.3251 76.5742 95.2658C76.5742 95.2064 76.5978 95.1495 76.6397 95.1075C76.6816 95.0654 76.7385 95.0417 76.7979 95.0415H78.4427C78.4722 95.0415 78.5014 95.0473 78.5286 95.0586C78.5559 95.0698 78.5806 95.0864 78.6014 95.1072C78.6223 95.128 78.6388 95.1527 78.6501 95.1799C78.6614 95.2072 78.6672 95.2363 78.6672 95.2658V99.7377C78.6672 99.7672 78.6614 99.7963 78.6501 99.8235C78.6388 99.8507 78.6223 99.8755 78.6014 99.8963C78.5806 99.9171 78.5559 99.9337 78.5286 99.9449C78.5014 99.9562 78.4722 99.962 78.4427 99.962Z" fill="#CACACA"/>
<path d="M77.6749 103.643C77.3501 103.376 76.9708 103.185 76.5638 103.081C76.1568 102.977 75.732 102.964 75.3192 103.042C74.9065 103.12 74.5159 103.287 74.1749 103.532C73.8339 103.777 73.5509 104.094 73.3457 104.46L63.2933 102.671L65.3923 107.54L74.6164 108.493C75.255 108.796 75.9829 108.855 76.6621 108.659C77.3414 108.462 77.9248 108.023 78.3018 107.425C78.6788 106.827 78.8232 106.112 78.7076 105.415C78.5921 104.718 78.2246 104.087 77.6749 103.643H77.6749Z" fill="#FFB6B6"/>
<path d="M71.1388 108.547L52.7155 107.1L52.6787 107.031C52.6083 106.898 45.6279 93.6853 44.6008 90.6539C43.9617 88.8286 43.9666 86.8398 44.6147 85.0178L44.6333 84.9737L44.6748 84.9497C45.524 84.4639 46.5135 84.2817 47.4802 84.4332C48.4469 84.5846 49.333 85.0607 49.9926 85.7829C53.1583 89.2868 55.4657 93.478 56.7326 98.0255L57.4502 100.613L70.6312 103.563L71.1388 108.547Z" fill="#FF2121"/>
<path d="M141.943 11.9673L224 0V78.5063L141.943 66.5393V11.9673Z" fill="#5949A3"/>
<path d="M180.732 27.6358C180.61 27.3583 180.482 27.0765 180.346 26.8052C180.215 26.5406 180.068 26.2843 179.905 26.0378C179.758 25.8125 179.584 25.6054 179.388 25.4209C179.212 25.2538 179.003 25.1244 178.775 25.0406C178.527 24.9547 178.259 24.9369 178.002 24.9892C177.733 25.046 177.475 25.1482 177.24 25.2915C176.981 25.4474 176.737 25.6258 176.509 25.8246C176.272 26.0267 176.043 26.2474 175.823 26.4661C175.171 27.1178 174.528 27.7781 173.895 28.4472C173.266 29.1122 172.647 29.7856 172.036 30.4673C171.43 31.1451 170.833 31.8311 170.245 32.5252C169.661 33.2156 169.086 33.9139 168.521 34.6202L168.523 34.6619L169.849 34.4975L171.192 34.331L172.551 34.1626L173.927 33.9913C174.261 33.9499 174.599 33.907 174.937 33.8514C175.278 33.7974 175.616 33.7249 175.95 33.6341C176.291 33.5406 176.623 33.4173 176.942 33.2658C177.279 33.1051 177.597 32.9071 177.89 32.6757C178.006 32.5838 178.121 32.4847 178.237 32.3865C178.353 32.2883 178.471 32.1912 178.589 32.1041C178.704 32.0183 178.826 31.9435 178.954 31.8809C179.076 31.8216 179.206 31.7838 179.34 31.7692C179.504 31.7549 179.669 31.7799 179.821 31.8423C179.983 31.9097 180.134 32.002 180.268 32.1158C180.416 32.2407 180.553 32.3787 180.677 32.5281C180.808 32.6847 180.93 32.8478 181.044 33.0169C181.739 34.0755 182.328 35.2001 182.802 36.3743C183.317 37.5911 183.774 38.8739 184.246 40.1461C184.72 41.4237 185.206 42.6907 185.773 43.8727C186.307 45.0341 186.989 46.1216 187.802 47.108C187.292 45.3784 186.761 43.6708 186.207 41.9852C185.657 40.3082 185.085 38.6548 184.493 37.025C183.903 35.4041 183.293 33.8086 182.665 32.2386C182.039 30.6779 181.395 29.1436 180.732 27.6358H180.732Z" fill="white"/>
<path d="M162.849 28.0997L162.829 28.1231L162.808 28.1465L162.788 28.1697L162.768 28.1928C162.718 28.2337 162.669 28.2752 162.619 28.3173C162.57 28.3593 162.521 28.4017 162.472 28.4443C162.423 28.4871 162.374 28.5302 162.325 28.5734L162.18 28.7035C162.089 28.7852 161.999 28.8675 161.909 28.9505C161.818 29.0335 161.729 29.1172 161.64 29.2017C161.551 29.2863 161.462 29.3719 161.373 29.4587C161.285 29.5455 161.197 29.6322 161.109 29.7188C160.935 29.8926 160.763 30.0691 160.592 30.2484C160.421 30.4277 160.252 30.6092 160.085 30.7928C159.918 30.9771 159.753 31.1642 159.589 31.3541C159.425 31.5441 159.263 31.7365 159.103 31.9314C159.02 32.0325 158.937 32.1343 158.856 32.2369C158.774 32.3395 158.692 32.4426 158.611 32.5464C158.53 32.6501 158.45 32.7548 158.37 32.8604C158.29 32.9661 158.211 33.0714 158.131 33.1765L158.114 33.1479L158.097 33.1194L158.081 33.0908L158.066 33.0583L158.062 33.0508L158.058 33.0434L158.054 33.036L158.05 33.0283C157.882 32.7009 157.749 32.3563 157.654 32.0005C157.554 31.6266 157.489 31.2443 157.459 30.8585C157.428 30.4629 157.431 30.0653 157.469 29.6702C157.506 29.2741 157.58 28.8823 157.689 28.4997C157.791 28.1378 157.931 27.7874 158.105 27.4542C158.261 27.1557 158.453 26.8777 158.677 26.6263C158.876 26.4018 159.109 26.2101 159.368 26.0581C159.607 25.9184 159.871 25.8277 160.146 25.7915C160.412 25.7581 160.682 25.7825 160.937 25.8631C161.204 25.9493 161.452 26.0849 161.669 26.2628C161.913 26.4623 162.125 26.697 162.299 26.9591C162.5 27.2596 162.664 27.5831 162.787 27.9227L162.789 27.9287L162.792 27.935L162.794 27.9413L162.796 27.9473L162.81 27.9852L162.823 28.0235L162.836 28.062L162.849 28.0997Z" fill="white"/>
<path d="M163.134 53.9059C163.437 53.9398 163.74 53.9815 164.044 54.031C164.348 54.0805 164.653 54.1376 164.958 54.2023C165.265 54.2678 165.572 54.3411 165.879 54.4224C166.186 54.5037 166.495 54.5931 166.804 54.6908C167.758 54.9946 168.691 55.3606 169.598 55.7865C170.557 56.2367 171.487 56.7444 172.385 57.3068C173.34 57.9049 174.26 58.5554 175.143 59.2553C176.084 60.0016 176.986 60.7952 177.846 61.6333C178.142 61.9209 178.436 62.2159 178.727 62.5183C179.018 62.8207 179.308 63.1312 179.595 63.4496C179.883 63.768 180.168 64.0937 180.45 64.4266C180.732 64.7595 181.012 65.1002 181.29 65.4487L181.392 65.5772L181.493 65.7065L181.595 65.8364L181.696 65.9669C181.703 65.9783 181.713 65.9878 181.725 65.9944C181.737 66.001 181.751 66.0046 181.764 66.0048C181.776 66.0038 181.787 66.0002 181.798 65.9944C181.808 65.9885 181.817 65.9805 181.824 65.9709C181.84 65.949 181.85 65.9224 181.851 65.8949C181.852 65.863 181.842 65.8317 181.822 65.8064C181.546 65.449 181.266 65.0986 180.984 64.7552C180.701 64.4118 180.416 64.0767 180.129 63.7497C179.843 63.4223 179.554 63.1021 179.261 62.789C178.968 62.4759 178.675 62.1713 178.38 61.8754C178.085 61.5792 177.788 61.2905 177.488 61.0092C177.189 60.7279 176.888 60.4547 176.587 60.1898C176.285 59.9248 175.982 59.6679 175.676 59.4189C175.371 59.17 175.065 58.9285 174.758 58.6946C174.451 58.4609 174.143 58.2349 173.833 58.0166C173.523 57.7983 173.213 57.5878 172.903 57.3853C172.592 57.1836 172.281 56.9895 171.968 56.8032C171.656 56.6169 171.344 56.4384 171.032 56.2679C170.72 56.0983 170.408 55.9365 170.095 55.7825C169.782 55.6285 169.47 55.4829 169.158 55.3457C168.847 55.2081 168.535 55.0785 168.222 54.9569C167.909 54.8352 167.597 54.7216 167.287 54.616C166.977 54.5107 166.667 54.4134 166.357 54.3239C166.047 54.2345 165.739 54.1532 165.431 54.0801C165.124 54.007 164.817 53.9417 164.51 53.8842C164.203 53.8268 163.898 53.7772 163.594 53.7355L163.48 53.7201L163.366 53.7055L163.249 53.6918L163.134 53.679C163.124 53.6788 163.114 53.6815 163.106 53.687C163.096 53.6929 163.089 53.7008 163.083 53.7101C163.076 53.7208 163.071 53.7324 163.068 53.7446C163.064 53.7588 163.062 53.7734 163.062 53.788C163.062 53.8025 163.064 53.8169 163.068 53.8309C163.071 53.8438 163.076 53.8562 163.083 53.8677C163.089 53.8778 163.097 53.8867 163.106 53.894C163.114 53.9005 163.124 53.9047 163.134 53.9059H163.134Z" fill="white"/>
<path d="M162.849 46.7174C163.39 46.7945 163.933 46.873 164.48 46.9529C165.026 47.0329 165.579 47.1176 166.137 47.207C166.695 47.2967 167.255 47.3918 167.818 47.4925C168.384 47.5953 168.952 47.7064 169.523 47.826C170.098 47.9402 170.675 48.0699 171.254 48.2151C171.836 48.3603 172.42 48.5206 173.005 48.6959C173.593 48.8721 174.183 49.0636 174.774 49.2703C175.367 49.4799 175.962 49.7043 176.558 49.9435C177.087 50.1569 177.616 50.3896 178.143 50.6416C178.671 50.8936 179.199 51.1653 179.728 51.4567C180.256 51.7498 180.782 52.0622 181.307 52.394C181.831 52.7257 182.354 53.0783 182.878 53.4517C183.368 53.8021 183.852 54.1733 184.33 54.5652C184.809 54.9571 185.283 55.3711 185.753 55.8071C186.223 56.2432 186.686 56.6993 187.141 57.1755C187.597 57.6517 188.046 58.1492 188.489 58.6681C188.927 59.1803 189.352 59.7144 189.764 60.2706C190.175 60.8267 190.575 61.4054 190.964 62.0064C191.351 62.6075 191.723 63.228 192.08 63.8679C192.437 64.5078 192.779 65.1674 193.105 65.8467C193.146 65.9323 193.186 66.018 193.226 66.1036C193.266 66.1893 193.306 66.2758 193.345 66.3631C193.385 66.4499 193.424 66.537 193.463 66.6244C193.502 66.7117 193.54 66.7994 193.577 66.8873C193.582 66.9023 193.591 66.916 193.602 66.9276C193.613 66.9391 193.626 66.9483 193.641 66.9544C193.652 66.9584 193.665 66.9595 193.677 66.9578C193.689 66.956 193.701 66.9515 193.711 66.9444C193.734 66.9286 193.75 66.9049 193.757 66.8779C193.765 66.8435 193.762 66.8074 193.747 66.7754C193.438 66.0742 193.111 65.3902 192.767 64.7232C192.423 64.0563 192.063 63.4113 191.688 62.7881C191.314 62.1633 190.924 61.5585 190.519 60.9738C190.115 60.3891 189.698 59.8285 189.268 59.2919C188.836 58.7517 188.394 58.2312 187.944 57.7302C187.493 57.2293 187.036 56.7505 186.574 56.2939C186.111 55.8371 185.641 55.4009 185.164 54.9854C184.687 54.5699 184.206 54.1772 183.722 53.8072C183.216 53.4216 182.707 53.0549 182.194 52.7072C181.681 52.3594 181.168 52.0324 180.654 51.7262C180.14 51.4196 179.624 51.1321 179.107 50.8637C178.589 50.5953 178.072 50.3472 177.554 50.1194C176.955 49.8583 176.357 49.6139 175.759 49.3862C175.165 49.1597 174.571 48.9504 173.979 48.7581C173.388 48.5649 172.799 48.3886 172.213 48.2291C171.63 48.0704 171.047 47.9276 170.467 47.8009C169.885 47.6676 169.306 47.5451 168.729 47.4334C168.155 47.3215 167.583 47.2177 167.014 47.1219C166.449 47.0268 165.886 46.9366 165.325 46.8513C164.77 46.767 164.215 46.6857 163.663 46.6075L163.459 46.5789L163.255 46.5504L163.052 46.5204L162.849 46.4918C162.838 46.4903 162.827 46.4923 162.817 46.4974C162.808 46.5025 162.8 46.5106 162.795 46.5204C162.783 46.5433 162.777 46.5689 162.777 46.5949C162.777 46.6228 162.783 46.6503 162.795 46.6754C162.8 46.6862 162.808 46.6956 162.817 46.7029C162.826 46.7103 162.837 46.7152 162.849 46.7174Z" fill="white"/>
<path d="M198.95 64.3787C198.862 64.2264 198.775 64.0735 198.688 63.9199C198.601 63.7663 198.514 63.6133 198.427 63.4611C198.341 63.3088 198.254 63.156 198.168 63.0026C198.082 62.8492 197.996 62.6963 197.911 62.5441C197.215 61.3018 196.534 60.0575 195.866 58.8114C195.203 57.5722 194.553 56.3305 193.917 55.0865C193.284 53.8494 192.665 52.6093 192.06 51.3662C191.457 50.129 190.866 48.8894 190.288 47.6473C189.897 46.8068 189.513 45.9652 189.135 45.1226C188.756 44.28 188.385 43.4389 188.02 42.5994C187.656 41.7596 187.298 40.9186 186.945 40.0764C186.593 39.2342 186.247 38.3931 185.908 37.5532C185.746 37.1535 185.586 36.7538 185.427 36.3541C185.269 35.9544 185.111 35.5547 184.955 35.155C184.8 34.7553 184.645 34.3556 184.492 33.9559C184.339 33.5562 184.187 33.1565 184.037 32.7568C183.92 32.4469 183.804 32.1369 183.689 31.8266C183.574 31.5164 183.46 31.2062 183.346 30.8962C183.233 30.5861 183.121 30.276 183.009 29.9657C182.897 29.6555 182.786 29.3453 182.676 29.035C182.645 28.9463 182.614 28.8576 182.583 28.7689C182.552 28.6802 182.521 28.5914 182.49 28.5026C182.459 28.4137 182.429 28.3248 182.398 28.2359L182.307 27.969C182.236 27.7596 182.165 27.5502 182.093 27.3409C182.022 27.1315 181.951 26.9227 181.88 26.7145C181.808 26.5063 181.736 26.2987 181.663 26.0918C181.591 25.8849 181.517 25.6792 181.442 25.4746C181.357 25.2416 181.267 25.0061 181.171 24.7745C181.074 24.543 180.971 24.316 180.86 24.0993C180.752 23.888 180.631 23.6839 180.497 23.4883C180.371 23.3051 180.227 23.1349 180.068 22.9801C180 22.9116 179.926 22.8489 179.847 22.7926C179.773 22.7391 179.693 22.6925 179.61 22.6532C179.53 22.6155 179.446 22.5856 179.36 22.5639C179.276 22.5426 179.189 22.5299 179.102 22.5259C178.978 22.5245 178.854 22.5418 178.735 22.5773C178.613 22.6139 178.495 22.6633 178.383 22.7246C178.266 22.7888 178.153 22.8603 178.045 22.9387C177.934 23.0178 177.825 23.1035 177.718 23.1903C176.938 23.8307 176.176 24.498 175.432 25.1922C174.695 25.8814 173.976 26.5963 173.275 27.3369C172.579 28.0723 171.902 28.8322 171.244 29.6166C170.591 30.3958 169.956 31.1984 169.34 32.0245C168.727 32.8429 168.133 33.6809 167.56 34.5386C166.989 35.392 166.439 36.2647 165.908 37.1566C165.38 38.0438 164.871 38.9493 164.383 39.8731C163.898 40.7911 163.433 41.7271 162.987 42.681C162.983 42.6925 162.976 42.7029 162.967 42.7113C162.959 42.7197 162.948 42.7259 162.936 42.7293C162.926 42.7309 162.916 42.7301 162.907 42.727C162.897 42.7239 162.889 42.7186 162.882 42.7116C162.864 42.695 162.852 42.6733 162.848 42.6496C162.842 42.6206 162.846 42.5906 162.858 42.564C162.913 42.4481 162.967 42.3323 163.022 42.2168C163.076 42.1013 163.131 41.9864 163.187 41.8722C163.242 41.758 163.298 41.6432 163.354 41.5279C163.41 41.4125 163.466 41.2983 163.523 41.1853C164.229 39.7627 164.98 38.3816 165.775 37.0418C166.575 35.6929 167.421 34.3885 168.311 33.1285C169.208 31.859 170.148 30.6371 171.133 29.463C172.126 28.2793 173.164 27.1468 174.245 26.0655C174.428 25.883 174.612 25.7022 174.798 25.5231C174.983 25.344 175.17 25.1661 175.358 24.9895C175.546 24.8131 175.736 24.6382 175.926 24.465C176.117 24.2918 176.309 24.1201 176.502 23.9497C176.6 23.8639 176.698 23.7782 176.796 23.6928C176.894 23.6073 176.992 23.5224 177.091 23.4381C177.19 23.3536 177.289 23.2698 177.389 23.1869C177.488 23.1039 177.589 23.0218 177.689 22.9408C177.784 22.8544 177.884 22.7741 177.988 22.7004C178.088 22.6299 178.193 22.5664 178.302 22.5102C178.407 22.4559 178.516 22.4093 178.628 22.3709C178.738 22.3337 178.85 22.3051 178.964 22.2852C179.338 22.2518 179.71 22.3664 180 22.6044C180.329 22.8766 180.604 23.2087 180.809 23.5831C181.05 24.0072 181.258 24.4493 181.431 24.9056C181.612 25.3686 181.77 25.8348 181.911 26.2514C181.956 26.3825 182.001 26.5136 182.045 26.6445C182.09 26.7755 182.135 26.9065 182.181 27.0377C182.226 27.1686 182.271 27.2996 182.317 27.4305C182.362 27.5615 182.408 27.6923 182.454 27.8231C182.627 28.3202 182.802 28.817 182.98 29.3134C183.157 29.8098 183.337 30.3063 183.518 30.8031C183.7 31.3001 183.884 31.7966 184.07 32.2928C184.255 32.789 184.443 33.2855 184.634 33.7823C184.751 34.0891 184.869 34.3956 184.988 34.7019C185.107 35.0081 185.227 35.3148 185.348 35.6218C185.468 35.9286 185.59 36.2352 185.712 36.5416C185.835 36.8481 185.957 37.1544 186.081 37.4607C186.467 38.4175 186.862 39.3726 187.263 40.3259C187.666 41.2827 188.077 42.238 188.495 43.1918C188.914 44.1491 189.342 45.1052 189.778 46.0599C190.215 47.0182 190.66 47.9754 191.113 48.9314C191.716 50.2036 192.332 51.473 192.963 52.7394C193.596 54.0128 194.244 55.2836 194.905 56.552C195.572 57.8272 196.253 59.1007 196.948 60.3725C197.648 61.6514 198.363 62.9286 199.094 64.2042C199.112 64.2366 199.12 64.2741 199.117 64.3113C199.114 64.3426 199.102 64.3723 199.082 64.3969C199.075 64.4072 199.065 64.4155 199.054 64.4213C199.042 64.4271 199.03 64.4301 199.017 64.4301C199.003 64.4277 198.989 64.4218 198.977 64.4128C198.965 64.4039 198.956 64.3921 198.95 64.3787Z" fill="white"/>
<path d="M169.202 30.8501L169.14 30.7505L169.078 30.6509L169.017 30.5512L168.955 30.4516C168.791 30.1904 168.625 29.9306 168.454 29.679C168.283 29.4275 168.107 29.1831 167.924 28.9564C167.748 28.7337 167.557 28.5228 167.353 28.3249C167.16 28.1381 166.949 27.9707 166.724 27.825C166.622 27.7572 166.515 27.6969 166.403 27.6446C166.297 27.5943 166.186 27.5523 166.073 27.5189C165.962 27.4864 165.849 27.4628 165.734 27.4484C165.621 27.4342 165.506 27.4293 165.391 27.4339C165.273 27.4455 165.155 27.4653 165.039 27.4932C164.921 27.5216 164.805 27.5578 164.692 27.6015C164.576 27.6463 164.463 27.6984 164.354 27.7573C164.24 27.8183 164.131 27.8859 164.025 27.9598C163.974 27.9934 163.924 28.0282 163.873 28.064C163.823 28.0997 163.772 28.1362 163.722 28.1733C163.673 28.2114 163.623 28.2494 163.574 28.2875C163.524 28.3256 163.475 28.3649 163.426 28.4054C163.37 28.4511 163.315 28.4974 163.259 28.5445C163.204 28.5915 163.149 28.6391 163.094 28.6872C163.039 28.735 162.984 28.783 162.93 28.8314L162.766 28.9767C162.664 29.0679 162.563 29.1598 162.462 29.2525C162.361 29.3452 162.261 29.4387 162.161 29.5331C162.061 29.6283 161.961 29.7235 161.862 29.8186C161.763 29.9138 161.664 30.0105 161.566 30.1087C161.371 30.3025 161.178 30.4994 160.987 30.6994C160.796 30.8995 160.607 31.1022 160.42 31.3075C160.233 31.5129 160.048 31.7214 159.864 31.933C159.681 32.1447 159.5 32.359 159.322 32.576C159.229 32.6887 159.137 32.802 159.045 32.916C158.953 33.03 158.862 33.1448 158.772 33.2603C158.681 33.3759 158.592 33.4922 158.502 33.6092C158.413 33.7263 158.325 33.844 158.236 33.9624C158.154 34.0724 158.073 34.183 157.992 34.2941C157.911 34.4053 157.831 34.5171 157.751 34.6296C157.671 34.7419 157.592 34.8549 157.513 34.9685C157.434 35.0821 157.356 35.1963 157.278 35.3111C157.273 35.3207 157.265 35.3287 157.256 35.3342C157.246 35.3396 157.236 35.3423 157.225 35.3419C157.215 35.3398 157.206 35.3357 157.198 35.3297C157.19 35.3238 157.183 35.3161 157.178 35.3074C157.165 35.2858 157.158 35.2611 157.157 35.2357C157.156 35.2077 157.163 35.1799 157.179 35.1566L157.241 35.0644L157.303 34.9736L157.365 34.8831L157.427 34.7932C157.486 34.7087 157.545 34.6245 157.604 34.5408C157.664 34.4571 157.723 34.3735 157.783 34.2901C157.843 34.207 157.903 34.1241 157.963 34.0415C158.024 33.9589 158.085 33.8766 158.146 33.7948C158.257 33.645 158.369 33.4965 158.482 33.3494C158.596 33.2023 158.71 33.0561 158.825 32.9109C158.94 32.7668 159.055 32.6234 159.172 32.4806C159.288 32.3379 159.406 32.1964 159.525 32.0561C159.709 31.8374 159.896 31.6219 160.084 31.4094C160.273 31.197 160.464 30.9877 160.656 30.7813C160.849 30.5745 161.044 30.3708 161.241 30.1704C161.438 29.97 161.638 29.7723 161.839 29.5774C161.94 29.4801 162.041 29.3837 162.143 29.2882C162.245 29.1926 162.347 29.0975 162.45 29.0027C162.553 28.9087 162.656 28.8155 162.76 28.7232C162.863 28.6309 162.968 28.5393 163.073 28.4485L163.168 28.3669C163.2 28.3398 163.232 28.313 163.264 28.2864C163.296 28.2597 163.328 28.2333 163.36 28.207C163.393 28.1807 163.425 28.1548 163.458 28.1293C163.531 28.0688 163.606 28.0105 163.681 27.9543C163.756 27.8982 163.832 27.8443 163.91 27.7927C163.986 27.741 164.063 27.6916 164.142 27.6446C164.221 27.5976 164.299 27.5527 164.378 27.5101C164.489 27.4497 164.603 27.3973 164.721 27.3534C164.835 27.3108 164.953 27.2771 165.072 27.2526C165.189 27.2284 165.308 27.2136 165.427 27.2083C165.547 27.2032 165.666 27.2078 165.785 27.222C165.901 27.2407 166.015 27.2675 166.127 27.3022C166.242 27.3377 166.353 27.3807 166.462 27.431C166.574 27.4829 166.682 27.5419 166.786 27.6074C166.895 27.6757 166.999 27.7504 167.099 27.831C167.321 28.0067 167.527 28.2004 167.717 28.4103C167.917 28.6317 168.105 28.8637 168.281 29.1052C168.462 29.3518 168.637 29.6108 168.808 29.876C168.979 30.1413 169.147 30.4113 169.314 30.6806C169.33 30.7071 169.337 30.738 169.334 30.7688C169.332 30.7969 169.324 30.8241 169.309 30.8479C169.303 30.8575 169.296 30.8658 169.287 30.8723C169.278 30.8789 169.268 30.8835 169.258 30.8858C169.246 30.8862 169.234 30.883 169.224 30.8766C169.214 30.8703 169.206 30.861 169.202 30.8501Z" fill="white"/>
<path d="M188.972 42.2241L191.525 40.9902L192.814 40.3675C192.918 40.3118 193.024 40.2578 193.129 40.2057C193.235 40.1535 193.342 40.103 193.449 40.0541C193.556 40.0052 193.664 39.9581 193.773 39.913C193.881 39.8679 193.99 39.8244 194.1 39.7826C194.194 39.7468 194.292 39.7201 194.391 39.7026C194.588 39.6683 194.789 39.6721 194.984 39.7138C195.084 39.7351 195.181 39.7657 195.275 39.8051C195.362 39.8477 195.446 39.8953 195.527 39.9479C195.61 40.0017 195.69 40.0601 195.766 40.1229C195.845 40.1876 195.92 40.2564 195.991 40.329C196.065 40.404 196.135 40.4826 196.201 40.5645C196.269 40.6479 196.336 40.7329 196.402 40.8195C196.469 40.9061 196.533 40.9943 196.597 41.0841C196.661 41.174 196.724 41.2654 196.785 41.3585C196.846 41.4516 196.906 41.5462 196.965 41.6423C197.038 41.758 197.111 41.8741 197.183 41.9906C197.256 42.1071 197.329 42.2239 197.401 42.3409L197.618 42.6924L197.836 43.0444C198.137 43.5295 198.438 44.0164 198.739 44.505C199.04 44.9936 199.342 45.4851 199.645 45.9796C199.948 46.4745 200.252 46.9707 200.555 47.4682C200.859 47.9657 201.164 48.4666 201.47 48.9708C201.774 49.4746 202.08 49.9802 202.387 50.4876C202.694 50.9951 203.002 51.5054 203.309 52.0188C203.617 52.5327 203.925 53.0479 204.234 53.5645C204.543 54.081 204.852 54.6011 205.163 55.1247C205.474 55.6491 205.786 56.1754 206.098 56.7035C206.41 57.2317 206.723 57.7628 207.037 58.2969C207.35 58.8312 207.665 59.3672 207.979 59.9051C208.294 60.443 208.61 60.9841 208.926 61.5285L209.042 61.7283L209.158 61.9282L209.275 62.128L209.391 62.3279C209.399 62.3433 209.41 62.357 209.424 62.3681C209.437 62.3791 209.453 62.3873 209.469 62.3921C209.483 62.3955 209.498 62.396 209.512 62.3936C209.526 62.3912 209.54 62.3859 209.552 62.3781C209.577 62.3622 209.595 62.3371 209.602 62.3082C209.609 62.2726 209.603 62.2355 209.583 62.2048C209.263 61.6542 208.944 61.1055 208.625 60.5586C208.306 60.0118 207.988 59.4681 207.671 58.9276C207.354 58.3872 207.037 57.8487 206.72 57.3119C206.404 56.7752 206.088 56.2423 205.774 55.7131C205.458 55.1815 205.143 54.6516 204.829 54.1235C204.514 53.5953 204.2 53.0705 203.888 52.5492C203.575 52.0275 203.263 51.5076 202.951 50.9895C202.638 50.4715 202.327 49.9565 202.016 49.4447C201.706 48.9329 201.396 48.4228 201.087 47.9144C200.777 47.4061 200.469 46.9008 200.161 46.3987C199.854 45.8966 199.547 45.3962 199.239 44.8976C198.932 44.3989 198.626 43.9034 198.322 43.411L198.093 43.043L197.865 42.6758L197.636 42.3095L197.407 41.9441C197.344 41.8415 197.28 41.7388 197.216 41.636C197.152 41.5332 197.088 41.4313 197.023 41.3302C196.958 41.2292 196.892 41.1293 196.826 41.0305C196.759 40.9317 196.691 40.8348 196.622 40.7398C196.495 40.566 196.36 40.3993 196.215 40.2405C196.077 40.0878 195.925 39.9475 195.762 39.8211C195.611 39.7025 195.445 39.6045 195.267 39.5296C195.095 39.4581 194.911 39.4188 194.725 39.4137C194.614 39.4187 194.505 39.4304 194.396 39.4485C194.287 39.4667 194.179 39.4913 194.073 39.5222C193.965 39.5534 193.86 39.5908 193.757 39.6341C193.652 39.6783 193.549 39.7282 193.45 39.7837L193.121 39.9419L192.794 40.1003L192.468 40.2588L192.144 40.4166L189.559 41.6686L188.922 41.9775C188.908 41.9844 188.896 41.9942 188.886 42.0061C188.876 42.0181 188.869 42.032 188.865 42.0469C188.856 42.0777 188.854 42.1104 188.861 42.1419C188.865 42.1702 188.879 42.1963 188.899 42.2164C188.909 42.2255 188.921 42.2311 188.934 42.2325C188.948 42.2339 188.961 42.2309 188.972 42.2241Z" fill="white"/>
<path d="M163.386 26.7573L163.267 26.9001C163.049 26.4609 162.76 26.0607 162.412 25.7153C162.118 25.4231 161.766 25.1966 161.378 25.0509C161.02 24.9196 160.635 24.8794 160.258 24.9338C159.855 24.9969 159.473 25.1521 159.14 25.3872C158.763 25.6535 158.435 25.9836 158.172 26.3628C157.878 26.7808 157.641 27.2351 157.465 27.7143C157.272 28.234 157.137 28.773 157.061 29.322C156.98 29.9014 156.96 30.4878 157.001 31.0715C157.021 31.3626 157.057 31.6523 157.109 31.9394C157.16 32.2163 157.226 32.49 157.308 32.7591C157.386 33.0166 157.481 33.2688 157.592 33.5142C157.697 33.7477 157.819 33.9731 157.957 34.1889L157.856 34.3465C157.712 34.1218 157.585 33.8869 157.476 33.6438C157.361 33.3884 157.262 33.1259 157.18 32.8579C157.095 32.5778 157.026 32.2929 156.974 32.0048C156.92 31.706 156.883 31.4044 156.862 31.1015C156.819 30.4941 156.84 29.8839 156.924 29.2809C157.003 28.7095 157.144 28.1484 157.344 27.6075C157.527 27.1087 157.774 26.6356 158.079 26.2003C158.353 25.8054 158.694 25.4615 159.087 25.1839C159.433 24.9386 159.831 24.7765 160.251 24.7103C160.643 24.6531 161.044 24.6945 161.417 24.8308C161.822 24.9821 162.189 25.2176 162.495 25.5217C162.858 25.8818 163.159 26.2993 163.386 26.7573Z" fill="white"/>
<path d="M175.442 41.4348C175.417 41.4128 175.394 41.3879 175.375 41.3609C175.354 41.3321 175.336 41.3014 175.322 41.2692C175.306 41.2351 175.293 41.1996 175.283 41.1633C175.273 41.125 175.265 41.086 175.261 41.0465C175.257 41.0065 175.255 40.9663 175.257 40.9261C175.259 40.8866 175.263 40.8474 175.271 40.8087C175.279 40.7712 175.289 40.7343 175.303 40.6985C175.316 40.6642 175.332 40.6311 175.351 40.5997L174.855 33.4337L175.683 33.4908L175.914 40.5712C175.949 40.6228 175.976 40.6795 175.994 40.7393C176.013 40.8017 176.024 40.8663 176.027 40.9315C176.03 40.9972 176.024 41.063 176.011 41.1273C175.998 41.1902 175.976 41.2508 175.945 41.3072C175.918 41.3578 175.882 41.403 175.839 41.4405C175.802 41.4733 175.759 41.4974 175.712 41.5108C175.667 41.5225 175.62 41.5225 175.575 41.5108C175.525 41.4963 175.479 41.4703 175.442 41.4348Z" fill="#9E616A"/>
<path d="M176.022 33.1358L175.803 35.5272L175.833 36.9889L174.921 37.1183L174.739 35.91L174.638 32.7096C174.634 32.5886 174.646 32.4678 174.675 32.3501C174.7 32.2422 174.741 32.1384 174.795 32.0421C174.844 31.9552 174.908 31.8778 174.984 31.8137C175.054 31.7555 175.136 31.7153 175.224 31.6963C175.312 31.6785 175.402 31.686 175.485 31.718C175.572 31.7524 175.649 31.8065 175.711 31.8759C175.782 31.955 175.839 32.0461 175.878 32.1449C175.924 32.2582 175.953 32.3778 175.964 32.4997L176.022 33.1358Z" fill="#2F2E41"/>
<path d="M172.561 53.9122L172.022 53.8757L171.767 50.8342L172.561 50.8768V53.9122Z" fill="#9E616A"/>
<path d="M172.698 54.6848L170.97 54.5623V54.5304C170.97 54.4025 170.987 54.2752 171.023 54.1524C171.053 54.0445 171.101 53.9424 171.166 53.8503C171.221 53.7699 171.294 53.7029 171.378 53.6542C171.458 53.6092 171.549 53.5884 171.64 53.5942L172.699 53.6642L172.698 54.6848Z" fill="#2F2E41"/>
<path d="M177.109 54.2188L176.548 54.1805L176.282 51.0754L177.109 51.12V54.2188Z" fill="#9E616A"/>
<path d="M177.252 55.0073L175.452 54.8797V54.8472C175.451 54.7166 175.47 54.5867 175.506 54.4615C175.538 54.3511 175.589 54.247 175.656 54.1534C175.714 54.0712 175.789 54.0029 175.877 53.9536C175.96 53.9077 176.055 53.8866 176.149 53.8928L177.252 53.9658V55.0073Z" fill="#2F2E41"/>
<path d="M174.944 27.1279C175.107 27.1194 175.268 27.1577 175.41 27.2381C175.562 27.3254 175.692 27.445 175.793 27.5884C175.908 27.7519 175.994 27.9335 176.05 28.1257C176.114 28.3434 176.146 28.5692 176.145 28.796C176.145 29.0258 176.113 29.2544 176.05 29.4752C175.994 29.6747 175.907 29.8642 175.793 30.0371C175.692 30.1901 175.562 30.3214 175.41 30.4234C175.272 30.5161 175.11 30.5694 174.944 30.5775C174.781 30.5833 174.62 30.5427 174.48 30.4605C174.33 30.3715 174.201 30.251 174.102 30.1073C173.988 29.9442 173.902 29.7636 173.848 29.5726C173.785 29.3569 173.754 29.1334 173.755 28.9088C173.754 28.6815 173.785 28.4552 173.848 28.2364C173.903 28.0382 173.989 27.8497 174.102 27.6774C174.201 27.5247 174.329 27.3931 174.48 27.29C174.617 27.1951 174.777 27.1391 174.944 27.1279Z" fill="#9E616A"/>
<path d="M174.789 31.2833L175.622 31.3904C175.727 31.602 175.811 31.8231 175.873 32.0508C175.938 32.2868 175.982 32.528 176.006 32.7716C176.03 33.021 176.034 33.2719 176.018 33.5219C176.002 33.7734 175.964 34.0231 175.906 34.2682L175.277 36.8991C175.277 36.8991 175.332 37.0558 175.413 37.3273C175.495 37.5989 175.604 37.9868 175.714 38.4479C175.823 38.909 175.933 39.4446 176.015 40.0113C176.102 40.5913 176.148 41.1767 176.152 41.7631C176.186 42.658 176.273 43.5501 176.414 44.4346C176.571 45.5554 176.781 46.8328 176.992 48.0376C177.202 49.2424 177.414 50.3815 177.573 51.2166C177.732 52.0517 177.838 52.587 177.838 52.587L175.472 52.7968L174.454 43.8813L173.069 52.6138L171.508 52.1496L172.365 40.7485L172.935 36.973L172.959 35.1296C172.959 35.1296 172.944 35.0439 172.93 34.9012C172.913 34.7114 172.907 34.5207 172.913 34.3302C172.92 34.0806 172.953 33.8325 173.01 33.5896C173.071 33.3272 173.177 33.0776 173.325 32.8522L174.072 31.3156L174.789 31.2833Z" fill="#3D2C8B"/>
<path d="M173.559 28.3059L175.308 28.2182V27.1119C175.215 27.0617 175.119 27.0166 175.022 26.9769C174.936 26.9403 174.845 26.9166 174.753 26.9064C174.67 26.8974 174.587 26.9134 174.514 26.9523C174.429 27.0032 174.361 27.0776 174.318 27.1665C174.212 27.1736 174.109 27.2093 174.022 27.2698C173.926 27.336 173.844 27.4205 173.781 27.5185C173.709 27.6286 173.654 27.749 173.618 27.8756C173.579 28.0156 173.559 28.1604 173.559 28.3059Z" fill="#2F2E41"/>
<path d="M175.406 26.9108C175.53 26.9046 175.653 26.9264 175.767 26.9746C175.881 27.0228 175.982 27.0962 176.064 27.1892C176.254 27.4082 176.396 27.6646 176.481 27.9418C176.585 28.2565 176.658 28.5805 176.7 28.9093C176.742 29.2145 176.763 29.5221 176.764 29.8301C176.765 29.9591 176.754 30.088 176.729 30.2146C176.712 30.3077 176.678 30.3971 176.631 30.4793C176.592 30.5454 176.54 30.6025 176.477 30.6469C176.416 30.689 176.347 30.7204 176.275 30.7397L176.17 29.9403L175.924 30.7885L175.861 30.7908L175.796 30.7925H175.662L175.579 30.5498L175.394 30.7985C175.21 30.8059 175.034 30.8227 174.874 30.827C174.732 30.8369 174.588 30.8211 174.451 30.7805C174.39 30.7598 174.333 30.7268 174.284 30.6837C174.235 30.6405 174.196 30.588 174.168 30.5292C174.089 30.345 174.053 30.145 174.063 29.9448C174.064 29.639 174.083 29.3334 174.121 29.0298C174.159 28.6982 174.228 28.3709 174.327 28.052C174.41 27.7643 174.549 27.4958 174.736 27.2617C174.817 27.1599 174.919 27.0761 175.034 27.0156C175.15 26.9552 175.276 26.9195 175.406 26.9108Z" fill="#2F2E41"/>
<path opacity="0.2" d="M173.856 37.4358L173.812 34.669L173.696 33.4431L173.408 34.6665L173.856 37.4358Z" fill="black"/>
<path d="M176.067 37.0449L174.741 37.0581V31.4648L176.067 31.418C176.198 31.4142 176.328 31.4474 176.442 31.514C176.563 31.586 176.668 31.6834 176.749 31.7995C176.841 31.9316 176.912 32.0782 176.957 32.2331C177.008 32.4079 177.034 32.5891 177.033 32.7713V35.648C177.034 35.831 177.008 36.013 176.957 36.1887C176.911 36.3465 176.841 36.4961 176.749 36.6318C176.668 36.7519 176.564 36.8542 176.442 36.9322C176.33 37.0039 176.2 37.0435 176.067 37.0464V37.0449Z" fill="#FF2121"/>
<path d="M175.881 34.0353C175.858 34.0357 175.836 34.0297 175.816 34.0179C175.795 34.0051 175.777 33.988 175.763 33.9676C175.747 33.9445 175.734 33.919 175.727 33.892C175.718 33.8616 175.713 33.83 175.713 33.7983V31.7116L176.049 31.7002V33.79C176.049 33.8219 176.044 33.8536 176.036 33.8843C176.028 33.9118 176.015 33.9379 175.999 33.9616C175.985 33.9827 175.967 34.0006 175.946 34.0144C175.926 34.0271 175.904 34.0342 175.88 34.035L175.881 34.0353Z" fill="#3F3D56"/>
<path d="M176.285 36.6004L175.311 36.6121C175.282 36.6123 175.254 36.6044 175.229 36.5893C175.203 36.5728 175.18 36.5509 175.162 36.5251C175.142 36.4958 175.127 36.4635 175.117 36.4294C175.106 36.3911 175.1 36.3514 175.101 36.3115V35.477C175.101 35.437 175.106 35.3972 175.117 35.3588C175.127 35.3245 175.142 35.2919 175.162 35.2623C175.18 35.2357 175.203 35.213 175.229 35.1955C175.254 35.1797 175.282 35.1709 175.311 35.1701L176.285 35.1521C176.314 35.1518 176.343 35.1596 176.368 35.1747C176.394 35.191 176.417 35.2128 176.435 35.2386C176.455 35.268 176.471 35.3005 176.481 35.3348C176.492 35.3733 176.498 35.4132 176.498 35.4533V36.293C176.498 36.3331 176.492 36.3731 176.481 36.4117C176.471 36.4464 176.455 36.4792 176.435 36.5091C176.417 36.5356 176.394 36.5583 176.368 36.5756C176.343 36.5913 176.314 36.5999 176.285 36.6004Z" fill="#3F3D56"/>
<path d="M173.535 34.9411C173.469 34.82 173.412 34.6944 173.364 34.5651C173.314 34.4311 173.273 34.2939 173.241 34.1546C173.207 34.0108 173.183 33.8651 173.168 33.7183C173.152 33.5682 173.145 33.4173 173.147 33.2664C173.147 32.9753 173.176 32.6849 173.236 32.3999C173.286 32.1529 173.367 31.9132 173.476 31.6861C173.562 31.5009 173.683 31.334 173.833 31.1948C173.952 31.0818 174.107 31.014 174.271 31.0029C174.362 31.0063 174.452 31.0265 174.536 31.0626C174.624 31.1008 174.705 31.1528 174.776 31.2165C174.854 31.2864 174.923 31.3665 174.981 31.4546C175.045 31.5524 175.098 31.6572 175.139 31.7669L175.045 31.8554C175.009 31.757 174.962 31.6628 174.905 31.5748C174.854 31.4955 174.793 31.4234 174.723 31.3601C174.659 31.3019 174.587 31.2542 174.508 31.2188C174.433 31.1853 174.353 31.166 174.271 31.1617C174.122 31.1721 173.982 31.235 173.875 31.3393C173.74 31.4691 173.63 31.6238 173.553 31.7949C173.454 32.0065 173.381 32.2294 173.336 32.4587C173.282 32.7236 173.256 32.9932 173.257 33.2635C173.254 33.4052 173.26 33.5468 173.275 33.6878C173.289 33.8255 173.312 33.9622 173.343 34.0972C173.373 34.2281 173.411 34.3569 173.457 34.4829C173.502 34.6044 173.556 34.7225 173.618 34.8363L173.535 34.9411Z" fill="#FF2121"/>
<path d="M174.068 41.7097C174.042 41.6837 174.019 41.655 173.999 41.624C173.978 41.5905 173.96 41.555 173.945 41.5181C173.929 41.4797 173.917 41.4401 173.908 41.3996C173.898 41.3573 173.892 41.3142 173.889 41.2709C173.885 41.2272 173.885 41.1833 173.889 41.1395C173.892 41.0969 173.899 41.0546 173.909 41.0131C173.918 40.973 173.931 40.9339 173.947 40.896C173.963 40.8598 173.982 40.8252 174.004 40.7927L173.76 32.9531L174.655 33.0839L174.615 40.8132C174.651 40.8722 174.678 40.9362 174.695 41.0031C174.732 41.1415 174.733 41.2872 174.698 41.4262C174.681 41.4933 174.654 41.5574 174.617 41.6163C174.586 41.6688 174.545 41.7148 174.497 41.7519C174.455 41.7839 174.406 41.8053 174.354 41.8145C174.304 41.8229 174.253 41.8183 174.206 41.8013C174.153 41.7818 174.105 41.7505 174.066 41.71L174.068 41.7097Z" fill="#9E616A"/>
<path d="M175.036 32.7248L174.701 35.312L174.674 36.9062L173.681 36.9699L173.533 35.6403L173.555 32.1455C173.556 32.0141 173.574 31.8833 173.609 31.7567C173.641 31.6417 173.689 31.532 173.752 31.4309C173.808 31.3407 173.881 31.2617 173.966 31.1983C174.044 31.1404 174.135 31.1031 174.231 31.0901C174.327 31.0779 174.425 31.0936 174.513 31.1352C174.605 31.1801 174.687 31.2452 174.751 31.3259C174.824 31.4179 174.882 31.5218 174.921 31.6331C174.965 31.76 174.992 31.8927 174.998 32.0271L175.036 32.7248Z" fill="#CACACA"/>
<path d="M175.131 56.0721C175.14 56.0381 175.157 56.0067 175.18 55.9804C175.204 55.9542 175.233 55.934 175.266 55.9213C175.351 55.8898 175.443 55.88 175.533 55.8928C175.657 55.9078 175.778 55.9387 175.895 55.9847C176.041 56.0409 176.181 56.1102 176.314 56.192C176.455 56.2774 176.589 56.3743 176.714 56.4817C176.826 56.5767 176.929 56.6818 177.022 56.7958C177.097 56.8875 177.159 56.9896 177.205 57.099C177.242 57.1781 177.252 57.2666 177.235 57.3519C177.226 57.3863 177.209 57.4179 177.185 57.4443C177.162 57.4706 177.132 57.4908 177.098 57.5033C177.012 57.5342 176.919 57.5432 176.828 57.5295C176.703 57.5137 176.58 57.4821 176.463 57.4353C176.317 57.3782 176.176 57.308 176.043 57.2255C175.902 57.1401 175.769 57.0434 175.645 56.9363C175.534 56.8413 175.433 56.7361 175.341 56.6222C175.267 56.5315 175.206 56.4305 175.161 56.3224C175.125 56.2441 175.115 56.1565 175.131 56.0721Z" fill="white"/>
<path d="M178.942 56.1126C178.955 56.081 178.977 56.0535 179.004 56.033C179.032 56.0125 179.064 55.9998 179.098 55.9961C179.193 55.9865 179.288 55.9996 179.376 56.0344C179.503 56.0805 179.625 56.1412 179.738 56.2151C179.882 56.3074 180.018 56.4112 180.146 56.5254C180.28 56.6452 180.406 56.7746 180.522 56.9126C180.625 57.0345 180.718 57.1647 180.799 57.302C180.865 57.4102 180.916 57.5268 180.951 57.6486C180.979 57.7325 180.979 57.8231 180.951 57.907C180.937 57.9388 180.915 57.9665 180.887 57.9869C180.859 58.0074 180.826 58.0199 180.792 58.0232C180.696 58.032 180.6 58.0179 180.51 57.9821C180.382 57.9348 180.26 57.873 180.146 57.7979C180.003 57.7043 179.867 57.5993 179.74 57.4839C179.606 57.3646 179.481 57.2357 179.366 57.0984C179.264 56.9774 179.173 56.8481 179.092 56.7119C179.027 56.6047 178.976 56.4893 178.942 56.3687C178.914 56.2855 178.914 56.1958 178.942 56.1126Z" fill="white"/>
<path d="M180.713 59.9232C180.726 59.8906 180.747 59.8618 180.774 59.8398C180.801 59.8179 180.834 59.8035 180.868 59.7981C180.963 59.7839 181.06 59.7926 181.151 59.8236C181.281 59.864 181.405 59.9193 181.522 59.9886C181.671 60.0749 181.812 60.1733 181.944 60.2826C182.085 60.3972 182.216 60.5219 182.338 60.6558C182.447 60.7739 182.545 60.9011 182.632 61.0358C182.702 61.142 182.758 61.2572 182.797 61.3784C182.828 61.4623 182.831 61.5539 182.805 61.6396C182.793 61.6724 182.771 61.7013 182.744 61.7232C182.716 61.7451 182.683 61.7593 182.648 61.7644C182.552 61.7776 182.454 61.7678 182.362 61.7358C182.231 61.6942 182.106 61.6376 181.988 61.5671C181.839 61.4802 181.698 61.3814 181.565 61.2716C181.426 61.1571 181.295 61.0325 181.174 60.8987C181.067 60.7812 180.97 60.6549 180.884 60.521C180.815 60.4158 180.76 60.3017 180.722 60.1819C180.691 60.0987 180.688 60.0081 180.713 59.9232Z" fill="white"/>
<path d="M184.513 61.5225C184.526 61.4892 184.548 61.46 184.576 61.4379C184.604 61.4157 184.637 61.4014 184.673 61.3963C184.771 61.3827 184.871 61.3925 184.965 61.4249C185.099 61.4671 185.228 61.5246 185.35 61.5962C185.503 61.6846 185.649 61.7852 185.786 61.8971C185.931 62.0142 186.067 62.1416 186.193 62.2785C186.305 62.3995 186.407 62.5298 186.497 62.6679C186.57 62.7762 186.628 62.8939 186.669 63.0177C186.701 63.1028 186.704 63.1961 186.677 63.2832C186.664 63.3168 186.641 63.3461 186.613 63.3683C186.584 63.3904 186.55 63.4045 186.514 63.4091C186.414 63.4221 186.313 63.4115 186.218 63.3783C186.083 63.3351 185.953 63.2767 185.831 63.2041C185.677 63.1145 185.531 63.0127 185.393 62.8998C185.249 62.7824 185.114 62.6548 184.989 62.5178C184.879 62.3977 184.779 62.2686 184.69 62.1318C184.618 62.0245 184.562 61.908 184.521 61.7855C184.49 61.7011 184.487 61.6088 184.513 61.5225Z" fill="white"/>
<path d="M166.453 29.1732C166.2 28.9951 165.916 28.8654 165.616 28.7906C165.335 28.7223 165.043 28.7106 164.757 28.756C164.462 28.8045 164.179 28.9067 163.92 29.0575C163.633 29.226 163.374 29.4376 163.151 29.6848C163.597 29.7816 164.044 29.8889 164.491 30.0065C164.939 30.1242 165.389 30.2528 165.841 30.3925C166.293 30.5324 166.745 30.6829 167.198 30.8439C167.651 31.0049 168.106 31.1775 168.563 31.3615C168.37 31.1975 168.19 31.0202 168.022 30.831C167.849 30.6398 167.679 30.4376 167.512 30.2381C167.344 30.0385 167.174 29.8418 167 29.6599C166.832 29.4818 166.649 29.3189 166.453 29.1732Z" fill="white"/>
<path d="M163.141 29.6823L162.946 29.9338C162.962 29.9119 162.979 29.8903 162.996 29.869C163.012 29.8476 163.029 29.8266 163.046 29.8059C163.064 29.7851 163.081 29.7648 163.098 29.7448C163.116 29.7248 163.133 29.7049 163.151 29.6851L163.141 29.6823Z" fill="#F2F2F2"/>
<path d="M196.1 42.3272C196.043 42.215 195.979 42.1065 195.908 42.0023C195.84 41.9022 195.765 41.8069 195.685 41.7168C195.607 41.6304 195.523 41.5498 195.433 41.4755C195.347 41.4039 195.255 41.3392 195.159 41.282L194.794 41.298C195.49 42.9312 196.25 44.5222 197.076 46.0709C197.906 47.6288 198.801 49.1404 199.759 50.6058C200.724 52.0811 201.753 53.5056 202.845 54.8794C203.946 56.2635 205.111 57.5917 206.34 58.8639L203.699 54.5997L201.114 50.424L198.581 46.3339L196.1 42.3272Z" fill="white"/>
<path d="M225.249 143H0.522843C0.384037 143 0.251051 142.969 0.153042 142.913C0.0550337 142.858 0 142.783 0 142.705C0 142.627 0.0550337 142.552 0.153042 142.497C0.251051 142.442 0.384037 142.411 0.522843 142.41H225.249C225.388 142.41 225.521 142.441 225.619 142.497C225.718 142.552 225.773 142.627 225.773 142.705C225.773 142.783 225.718 142.858 225.619 142.914C225.521 142.969 225.388 143 225.249 143Z" fill="white"/>
<path d="M50.6069 59.765C50.4571 59.765 50.3111 59.7179 50.1895 59.6306C50.0679 59.5432 49.9767 59.4199 49.929 59.2781L49.5654 58.1956C49.5349 58.1066 49.5223 58.0124 49.5283 57.9185C49.5344 57.8246 49.559 57.7328 49.6007 57.6484C49.6423 57.564 49.7003 57.4887 49.7713 57.4268C49.8422 57.3649 49.9247 57.3176 50.014 57.2877C50.1033 57.2577 50.1976 57.2458 50.2915 57.2524C50.3855 57.259 50.4772 57.2842 50.5614 57.3263C50.6456 57.3685 50.7206 57.4269 50.7821 57.4982C50.8436 57.5694 50.8904 57.6522 50.9198 57.7416L51.2834 58.824C51.3434 59.0035 51.3298 59.1995 51.2454 59.3689C51.1611 59.5383 51.0129 59.6675 50.8335 59.7279H50.8333C50.7603 59.7524 50.6839 59.765 50.6069 59.765Z" fill="#5949A3"/>
<path d="M51.4367 62.6281C51.2815 62.6277 51.1306 62.5769 51.0069 62.4833C50.8831 62.3897 50.7932 62.2584 50.7507 62.1093L50.4382 61.0107C50.3866 60.8287 50.4094 60.6337 50.5017 60.4685C50.5939 60.3033 50.7481 60.1815 50.9302 60.1297C51.1123 60.078 51.3075 60.1006 51.4729 60.1926C51.6383 60.2847 51.7604 60.4385 51.8124 60.6204L52.1249 61.7189C52.1506 61.8091 52.1582 61.9034 52.1474 61.9965C52.1365 62.0897 52.1074 62.1797 52.0617 62.2616C52.0161 62.3435 51.9547 62.4156 51.8811 62.4737C51.8076 62.5319 51.7232 62.575 51.633 62.6007C51.5691 62.6188 51.5031 62.6281 51.4367 62.6281Z" fill="#5949A3"/>
</g>
<defs>
<clipPath id="clip0">
<rect width="224" height="143" fill="white"/>
</clipPath>
</defs>
</svg>
